<svg version="1.1" xmlns="http://www.w3.org/2000/svg" xmlns:xlink="http://www.w3.org/1999/xlink" width="300" height="248" viewBox="0 0 300 248"><defs/><g transform="matrix(1,0,0,1,0,0)"><g><g><g><path fill="none" stroke="#d3d3d3" paint-order="fill stroke markers" d=" M 0 0 L 1200 0" stroke-miterlimit="10" stroke-opacity="0.8" stroke-dasharray="5"/></g><g><path fill="none" stroke="#d3d3d3" paint-order="fill stroke markers" d=" M 0 0 L 0 800" stroke-miterlimit="10" stroke-opacity="0.8" stroke-dasharray="5"/></g></g><g id="_00FDAE86-4466-451B-B4C5-85A624FC9FAD" bpmn2nodeid="_00FDAE86-4466-451B-B4C5-85A624FC9FAD" transform="matrix(1,0,0,1,100,100)"><g><path fill="none" stroke="none"/></g><g transform="matrix(1,0,0,1,0,0)"><path fill="#ffffff" stroke="none" id="_00FDAE86-4466-451B-B4C5-85A624FC9FAD?shapeType=BACKGROUND" paint-order="stroke fill markers" d=" M 2 0 L 148 0 L 148 0 A 2 2 0 0 1 150 2 L 150 96 L 150 96 A 2 2 0 0 1 148 98 L 2 98 L 2 98 A 2 2 0 0 1 0 96 L 0 2 L 0 2.0000000000000004 A 2 2 0 0 1 1.9999999999999996 0 Z"/></g><g transform="matrix(1,0,0,1,0,0)"><path fill="none" stroke="#000000" id="_00FDAE86-4466-451B-B4C5-85A624FC9FAD?shapeType=BORDER&amp;renderType=STROKE" paint-order="fill stroke markers" d=" M 2 0 L 148 0 L 148 0 A 2 2 0 0 1 150 2 L 150 96 L 150 96 A 2 2 0 0 1 148 98 L 2 98 L 2 98 A 2 2 0 0 1 0 96 L 0 2 L 0 2.0000000000000004 A 2 2 0 0 1 1.9999999999999996 0 Z" stroke-miterlimit="10" stroke-width="1.5" stroke-dasharray=""/></g><g><g transform="matrix(1,0,0,1,0,0)"><g transform="matrix(1,0,0,1,10,10)"/></g></g><g transform="matrix(1,0,0,1,38.37109375,41.5)"><text fill="#000000" stroke="none" font-family="Open Sans" font-size="12pt" font-style="normal" font-weight="normal" text-decoration="normal" x="36.62890625" y="12" text-anchor="middle" dominant-baseline="alphabetic">Milestone</text></g></g><g transform="matrix(1,0,0,1,100,100)"/></g></g></svg>